<svg fill="none" height="28" viewBox="0 0 110 28" width="110" xmlns="http://www.w3.org/2000/svg"><path d="m25.2364 13.5716-1.2687-.1123c-.9958-.0802-1.3812-.4818-1.3812-1.1565 0-.8029.6103-1.301 1.7668-1.301.8191 0 1.5417.1929 2.1045.6265l.7549-.7549c-.7074-.5781-1.7188-.851-2.8428-.851-1.6864 0-2.9072.8665-2.9072 2.3126 0 1.3009.8193 1.9915 2.3611 2.1201l1.3009.1123c.9153.0805 1.317.4658 1.317 1.1564 0 .9316-.8031 1.3971-2.1045 1.3971-.9799 0-1.8311-.257-2.4582-.9155l-.7711.771c.8675.8351 1.9114 1.1403 3.2445 1.1403 1.9112 0 3.2123-.8842 3.2123-2.409 0-1.4781-.9478-2.0078-2.3291-2.1365zm9.8882-3.5496c-1.2678 0-2.0665.2499-2.7663 1.1359-.0095.0122.7587.7591.7587.7591.4657-.6585.9796-.8991 1.9913-.8991 1.4456 0 2.0239.5781 2.0239 1.7343v.7548h-2.3765c-1.7667 0-2.7302.8996-2.7302 2.2814-.0186.5923.1946 1.1685.5942 1.6061.498.5141 1.1403.7228 2.2324.7228 1.06 0 1.6383-.2087 2.2813-.8514v.7548h1.1564v-5.3647c0-1.7184-1.0434-2.6336-3.164-2.6336zm2.0083 5.2045c0 .6588-.1286 1.1085-.4016 1.3653-.4979.4819-1.0921.5305-1.7666.5305-1.2528 0-1.8151-.4338-1.8151-1.3493 0-.9156.5782-1.3971 1.767-1.3971h2.2163zm5.6855-4.1756c.7548 0 1.2203.2248 1.8148.8832 0 0 .7743-.7525.7679-.7592-.8108-.8674-1.4991-1.1518-2.582-1.1518-1.9917 0-3.5016 1.349-3.5016 4.0472 0 2.6981 1.5096 4.0475 3.5016 4.0475 1.0921 0 1.7827-.2893 2.6018-1.1725l-.787-.755c-.5942.6586-1.06.8995-1.8148.8995-.7231.0289-1.4118-.3095-1.8309-.8995-.3694-.5139-.5139-1.1242-.5139-2.12 0-.9959.1445-1.6062.5139-2.1201.419-.5901 1.1078-.9284 1.8309-.8993zm9.9043-.9433h-1.4417l-3.583 3.4875.0055-7.01014h-1.1568v11.43574h1.1566l-.0055-2.8842 1.4026-1.4076 2.6506 4.2918h1.4293l-3.2787-5.0932zm5.3431-.19452c-1.1849 0-1.9855.46172-2.4782.98502-.7235.7543-.9081 1.6624-.9081 3.1094 0 1.4622.1846 2.3698.9081 3.1247.4927.5233 1.2929.9853 2.4782.9853 1.1852 0 2.0012-.462 2.4936-.9853.7234-.7542.9083-1.6624.9083-3.1247 0-1.4468-.1849-2.3551-.9083-3.1094-.4924-.5233-1.3087-.98502-2.4936-.98502zm.9391 6.04932c-.2509.2423-.5907.3703-.9391.3537-.3438.0166-.6788-.1117-.9235-.3537-.4158-.4156-.4618-1.1235-.4618-1.9549s.046-1.5237.4618-1.9393c.2447-.2421.5797-.3704.9235-.3537.3484-.0167.6882.1113.9391.3537.4154.4156.4617 1.1081.4617 1.9393s-.0463 1.5386-.4617 1.9549zm7.791-5.9574-1.616 4.9562-1.6316-4.9565h-2.1091l2.9557 8.0196h1.5698l2.9398-8.0196zm5.5129-.09227c-2.0778 0-3.494 1.47757-3.494 4.09437 0 3.248 1.8165 4.11 3.7096 4.11 1.447 0 2.2322-.4465 3.0478-1.2625l-1.2158-1.1849c-.5081.5081-.9393.7542-1.8166.7542-1.1237 0-1.7547-.7542-1.7547-1.7861h5.0179v-.8922c0-2.2013-1.2622-3.83287-3.4942-3.83287zm-1.5237 3.35557c.0029-.2969.0658-.5901.1848-.862.2522-.509.7712-.831 1.3392-.831.5681 0 1.087.322 1.3392.831.1186.2721.1814.5652.1846.862zm7.9697-2.4936v-.7697h-1.9551v8.0196h2.0011v-4.8331c0-1.016.6773-1.4779 1.2931-1.4779.4058-.014.7954.1599 1.0558.4715l1.5149-1.5181c-.5543-.5543-1.1083-.75427-1.8934-.75427-.7633-.00904-1.4952.30387-2.016.86197zm4.5307-1.60562v8.84742h2.0009v-6.3231h1.4777v-1.5237h-1.4777v-.87736c0-.46175.2311-.72349.7074-.72349h.7696v-1.69297h-1.1389c-1.632 0-2.3397 1.15429-2.3397 2.2932zm11.7162.74276c-1.1849 0-1.9856.46176-2.4782.98506-.7233.7543-.9081 1.6624-.9081 3.1093 0 1.4622.1848 2.3698.9081 3.1248.4926.5233 1.293.9852 2.4782.9852 1.1853 0 2.0013-.4619 2.4936-.9852.7233-.7543.9081-1.6624.9081-3.1248 0-1.4468-.1848-2.355-.9081-3.1093-.4925-.5233-1.3087-.98506-2.4936-.98506zm.9391 6.04926c-.2509.2424-.5907.3703-.9391.3537-.3437.0167-.6787-.1116-.9235-.3537-.4156-.4156-.4617-1.1235-.4617-1.9549 0-.8313.0461-1.5237.4617-1.9393.2447-.2421.5797-.3704.9235-.3537.3484-.0167.6883.1113.9391.3537.4154.4156.4618 1.1082.4618 1.9393 0 .8312-.0464 1.5386-.4618 1.9549zm11.9162-5.9569-1.293 4.957-1.647-4.9562h-1.462l-1.631 4.9562-1.293-4.9565h-2.1244l2.4624 8.0196h1.647l1.678-5.0332 1.678 5.0332h1.647l2.447-8.0196zm-18.1415 5.6038v-8.73212h-2.0003v8.85522c0 1.139.6929 2.2935 2.3397 2.2935h1.1389v-1.6933h-.7694c-.5079 0-.7074-.2462-.7074-.7233zm-58.9437-4.2464 1.0692-1.0692h-2.1893v-2.59966h-1.1565v8.20796c0 1.1723.6745 2.12 2.0237 2.12h.8188v-.9958h-.6101c-.7387 0-1.0759-.4338-1.0759-1.1564v-4.5069z" fill="#1e1b1d"/><path clip-rule="evenodd" d="m15.5627 14.1484h1.9453v7.7814h-17.508v-7.7814h1.94534v5.8361h13.61736z" fill="#bbb" fill-rule="evenodd"/><path d="m4.06533 13.5698 9.55427 2.0082.4016-1.91-9.55424-2.009zm1.26429-4.57486 8.85058 4.12196.8245-1.7701-8.85078-4.12195zm2.44901-4.34217 7.50337 6.24823 1.2496-1.50055-7.50336-6.24807zm4.84337-4.6185903-1.5669 1.1654303 5.8268 7.83441 1.5669-1.16526zm-8.73138 18.0046203h9.72668v-1.9453h-9.72668z" fill="#f58025"/></svg>